
<svg width="210" height="60" xmlns="http://www.w3.org/2000/svg">

 <g>
  <title>background</title>
  <rect fill="none" id="canvas_background" height="62" width="212" y="-1" x="-1"/>
 </g>
 <g>
  <title>Layer 1</title>
  <g id="svg_16">
   <g id="svg_1">
    <path id="svg_2" d="m23.613503,51.124c0,1.03 -0.766,1.761 -1.963,1.761l-3.407,0l0,-0.722l0.74,-0.062l0,-4.597l-0.749,-0.062l0,-0.722l3.354,0c1.083,0 1.814,0.739 1.814,1.655c0,0.59 -0.273,1.048 -0.696,1.329c0.572,0.266 0.907,0.768 0.907,1.42zm-3.707,-3.513l0,1.699l1.673,0c0.546,0 0.898,-0.396 0.898,-0.846s-0.378,-0.854 -0.924,-0.854l-1.647,0l0,0.001zm1.7,4.384c0.661,0 1.074,-0.413 1.074,-0.906c0,-0.484 -0.326,-0.925 -1.101,-0.925l-1.673,0l0,1.831l1.7,0z"/>
    <path id="svg_3" d="m51.227503,52.163l0,0.722l-1.356,0l-1.303,-2.368l-1.435,0l0,1.585l0.616,0.062l0,0.722l-2.28,0l0,-0.722l0.74,-0.062l0,-4.597l-0.749,-0.062l0,-0.722l3.434,0c1.083,0 1.919,0.819 1.919,1.91c0,0.854 -0.52,1.532 -1.276,1.779l0.968,1.69l0.722,0.063zm-4.095,-2.51l1.761,0c0.563,0 1.013,-0.458 1.013,-1.021c0,-0.572 -0.449,-1.021 -1.013,-1.021l-1.761,0l0,2.042z"/>
    <path id="svg_4" d="m78.110503,46.721l0,1.778l-0.854,0l-0.053,-0.889l-2.544,0l0,1.699l2.192,0l0,0.854l-2.192,0l0,1.831l2.544,0l0.053,-0.889l0.854,0l0,1.778l-5.115,0l0,-0.722l0.74,-0.062l0,-4.597l-0.749,-0.062l0,-0.722l5.124,0l0,0.003z"/>
    <path id="svg_5" d="m108.867503,47.443l-0.775,0.062l-1.364,5.38l-1.154,0l-0.968,-3.196l-0.22,-0.95l-0.22,0.95l-0.968,3.196l-1.153,0l-1.365,-5.38l-0.784,-0.062l0,-0.722l2.439,0l0,0.722l-0.678,0.053l0.81,3.319l0.211,0.934l0.247,-0.934l0.969,-3.407l0.986,0l0.968,3.407l0.256,0.951l0.22,-0.951l0.801,-3.319l-0.695,-0.053l0,-0.722l2.439,0l0,0.722l-0.002,0z"/>
    <path id="svg_6" d="m135.567503,46.721l0,1.778l-0.854,0l-0.053,-0.889l-2.544,0l0,1.699l2.191,0l0,0.854l-2.191,0l0,1.831l2.544,0l0.053,-0.889l0.854,0l0,1.778l-5.115,0l0,-0.722l0.739,-0.062l0,-4.597l-0.748,-0.062l0,-0.722l5.124,0l0,0.003z"/>
    <path id="svg_7" d="m163.365503,52.163l0,0.722l-1.356,0l-1.303,-2.368l-1.435,0l0,1.585l0.616,0.062l0,0.722l-2.28,0l0,-0.722l0.739,-0.062l0,-4.597l-0.748,-0.062l0,-0.722l3.434,0c1.083,0 1.919,0.819 1.919,1.91c0,0.854 -0.52,1.532 -1.276,1.779l0.969,1.69l0.721,0.063zm-4.094,-2.51l1.761,0c0.563,0 1.012,-0.458 1.012,-1.021c0,-0.572 -0.448,-1.021 -1.012,-1.021l-1.761,0l0,2.042z"/>
    <path id="svg_8" d="m188.108503,50.762l0,1.339l0.749,0.062l0,0.722l-2.413,0l0,-0.722l0.74,-0.062l0,-1.356l-1.761,-3.231l-0.811,-0.07l0,-0.722l2.342,0l0,0.722l-0.528,0.044l1.074,1.973l0.15,0.335l0.141,-0.335l1.074,-1.973l-0.537,-0.044l0,-0.722l2.342,0l0,0.722l-0.802,0.062l-1.76,3.256z"/>
   </g>
   <g id="ODYNN_6_">
    <path id="svg_9" d="m38.494,21.465c0,8.68 -7.167,15.464 -16.724,15.464c-9.556,0 -16.77,-6.784 -16.77,-15.464c0,-8.68 7.215,-15.464 16.77,-15.464c9.557,0 16.724,6.785 16.724,15.464zm-29.606,0c0,6.7 5.481,12.136 12.882,12.136c7.355,0 12.835,-5.436 12.835,-12.136c0,-6.7 -5.481,-12.136 -12.835,-12.136c-7.401,0 -12.882,5.437 -12.882,12.136z"/>
    <path id="svg_10" d="m58.838,36.833l-10.476,0c-0.737,0 -1.334,-0.529 -1.334,-1.181l0,-0.547c0,-0.617 0.536,-1.129 1.231,-1.177l2.019,-0.139"/>
    <path id="svg_11" d="m51.508,9.129l-3.307,-0.219c-0.692,-0.05 -1.225,-0.562 -1.225,-1.177l0,-0.552c0,-0.652 0.597,-1.181 1.334,-1.181l10.028,0"/>
    <path id="svg_12" d="m62.711,6.001c10.382,0 18.19,6.879 17.759,16.196c-0.382,8.258 -8.39,14.644 -17.731,14.644l-14.377,-0.009l-0.104,-2.904l3.25,-0.215l0,-24.585l-3.307,-0.219l1.517,-2.909l12.993,0l0,0.001zm0,27.316c8.25,0 14.282,-5.545 13.589,-13.063c-0.565,-6.125 -6.601,-10.729 -13.546,-10.729l-7.113,0l0,23.791l7.07,0l0,0.001z"/>
    <path id="svg_13" d="m106.456,26.224l0,6.396c0,0.617 0.513,1.13 1.176,1.177l1.974,0.141c0.664,0.047 1.176,0.56 1.176,1.177l0,0.546c0,0.652 -0.57,1.181 -1.274,1.181l-10.002,0c-0.704,0 -1.274,-0.529 -1.274,-1.181l0,-0.547c0,-0.617 0.512,-1.129 1.175,-1.177l1.928,-0.139c0.663,-0.048 1.175,-0.561 1.175,-1.177l0,-6.439c0,-0.203 -0.057,-0.403 -0.165,-0.58l-9.676,-15.883c-0.208,-0.341 -0.584,-0.564 -1.004,-0.596l-2.769,-0.212c-0.661,-0.051 -1.169,-0.562 -1.169,-1.177l0,-0.552c0,-0.652 0.57,-1.181 1.274,-1.181l9.574,0c0.704,0 1.274,0.529 1.274,1.181l0,0.543c0,0.618 -0.514,1.131 -1.179,1.177l0,0c-0.932,0.064 -1.474,1.007 -1.013,1.76l6.16,10.057c0.017,0.027 0.032,0.055 0.046,0.083l0.644,1.279l0.59,-1.263c0.018,-0.039 0.039,-0.077 0.061,-0.114l6.15,-10.041c0.462,-0.754 -0.081,-1.697 -1.014,-1.76l-0.043,-0.003c-0.665,-0.045 -1.18,-0.559 -1.18,-1.177l0,-0.542c0,-0.652 0.57,-1.181 1.274,-1.181l9.574,0c0.704,0 1.274,0.529 1.274,1.181l0,0.553c0,0.614 -0.508,1.126 -1.168,1.177l-2.722,0.21c-0.421,0.033 -0.797,0.256 -1.004,0.597l-9.678,15.926c-0.108,0.178 -0.165,0.377 -0.165,0.58z"/>
    <path id="svg_14" d="m162.57,35.378l0,0c0,0.809 -0.655,1.464 -1.464,1.464l-5.036,0c-0.457,0 -0.887,-0.213 -1.164,-0.577l-18.33,-24.052l0.13,2.339c0.002,0.027 0.002,0.054 0.002,0.081l0,17.752c0,0.754 0.572,1.384 1.322,1.457l0.527,0.051c0.75,0.073 1.322,0.703 1.322,1.457l0,0.027c0,0.809 -0.655,1.464 -1.464,1.464l-7.866,0c-0.809,0 -1.464,-0.655 -1.464,-1.464l0,-0.001c0,-0.765 0.588,-1.4 1.351,-1.46l1.264,-0.098c0.762,-0.059 1.351,-0.695 1.351,-1.46l0,-21.874c0,-0.765 -0.589,-1.401 -1.352,-1.46l-1.306,-0.1c-0.763,-0.059 -1.352,-0.695 -1.352,-1.46l0,0c0,-0.809 0.655,-1.464 1.464,-1.464l4.993,0c0.456,0 0.886,0.213 1.163,0.575l18.373,24.053l-0.132,-2.688l0,-17.482c0,-0.754 -0.573,-1.385 -1.324,-1.457l-0.568,-0.054c-0.751,-0.072 -1.324,-0.703 -1.324,-1.457l0,-0.025c0,-0.809 0.655,-1.464 1.464,-1.464l7.91,0c0.809,0 1.464,0.655 1.464,1.464l0,0.001c0,0.765 -0.588,1.4 -1.351,1.46l-1.265,0.098c-0.762,0.059 -1.351,0.695 -1.351,1.46l0,21.874c0,0.765 0.589,1.401 1.352,1.46l1.306,0.1c0.766,0.059 1.355,0.695 1.355,1.46z"/>
    <path id="svg_15" d="m203.905,35.378l0,0c0,0.809 -0.655,1.464 -1.464,1.464l-5.036,0c-0.457,0 -0.887,-0.213 -1.164,-0.577l-18.33,-24.052l0.13,2.339c0.002,0.027 0.002,0.054 0.002,0.081l0,17.752c0,0.754 0.572,1.384 1.322,1.457l0.527,0.051c0.75,0.073 1.322,0.703 1.322,1.457l0,0.027c0,0.809 -0.655,1.464 -1.464,1.464l-7.866,0c-0.809,0 -1.464,-0.655 -1.464,-1.464l0,-0.001c0,-0.765 0.588,-1.4 1.351,-1.46l1.264,-0.098c0.762,-0.059 1.351,-0.695 1.351,-1.46l0,-21.874c0,-0.765 -0.589,-1.401 -1.352,-1.46l-1.306,-0.1c-0.763,-0.059 -1.352,-0.695 -1.352,-1.46l0,0c0,-0.809 0.655,-1.464 1.464,-1.464l4.993,0c0.456,0 0.886,0.213 1.163,0.575l18.373,24.053l-0.132,-2.688l0,-17.482c0,-0.754 -0.573,-1.385 -1.324,-1.457l-0.568,-0.054c-0.751,-0.072 -1.324,-0.703 -1.324,-1.457l0,-0.025c0,-0.809 0.655,-1.464 1.464,-1.464l7.91,0c0.809,0 1.464,0.655 1.464,1.464l0,0.001c0,0.765 -0.588,1.4 -1.351,1.46l-1.265,0.098c-0.762,0.059 -1.351,0.695 -1.351,1.46l0,21.874c0,0.765 0.589,1.401 1.352,1.46l1.306,0.1c0.766,0.059 1.355,0.695 1.355,1.46z"/>
   </g>
  </g>
 </g>
</svg>