<?xml version="1.0" encoding="utf-8"?>
<!-- Generator: Adobe Illustrator 23.0.6, SVG Export Plug-In . SVG Version: 6.00 Build 0)  -->
<svg version="1.1" id="Слой_1" xmlns="http://www.w3.org/2000/svg" xmlns:xlink="http://www.w3.org/1999/xlink" x="0px" y="0px"
	 viewBox="0 0 283.465 283.465" style="enable-background:new 0 0 283.465 283.465;" xml:space="preserve">
<g>
	<path d="M61.002,160.01c0,1.03-0.766,1.761-1.963,1.761h-3.407v-0.722l0.74-0.062v-4.597l-0.749-0.062v-0.722h3.354
		c1.083,0,1.814,0.739,1.814,1.655c0,0.59-0.273,1.048-0.696,1.329C60.667,158.856,61.002,159.358,61.002,160.01z M57.295,156.497
		v1.699h1.673c0.546,0,0.898-0.396,0.898-0.846s-0.378-0.854-0.924-0.854H57.295z M58.995,160.881c0.661,0,1.074-0.413,1.074-0.906
		c0-0.484-0.326-0.925-1.101-0.925h-1.673v1.831H58.995z"/>
	<path d="M88.616,161.049v0.722H87.26l-1.303-2.368h-1.435v1.585l0.616,0.062v0.722h-2.28v-0.722l0.74-0.062v-4.597l-0.749-0.062
		v-0.722h3.434c1.083,0,1.919,0.819,1.919,1.91c0,0.854-0.52,1.532-1.276,1.779l0.968,1.69L88.616,161.049z M84.521,158.539h1.761
		c0.563,0,1.013-0.458,1.013-1.021c0-0.572-0.449-1.021-1.013-1.021h-1.761V158.539z"/>
	<path d="M115.499,155.607v1.778h-0.854l-0.053-0.889h-2.544v1.699h2.192v0.854h-2.192v1.831h2.544l0.053-0.889h0.854v1.778h-5.115
		v-0.722l0.74-0.062v-4.597l-0.749-0.062v-0.722H115.499z"/>
	<path d="M146.256,156.329l-0.775,0.062l-1.364,5.38h-1.154l-0.968-3.196l-0.22-0.95l-0.22,0.95l-0.968,3.196h-1.153l-1.365-5.38
		l-0.784-0.062v-0.722h2.439v0.722l-0.678,0.053l0.81,3.319l0.211,0.934l0.247-0.934l0.969-3.407h0.986l0.968,3.407l0.256,0.951
		l0.22-0.951l0.801-3.319l-0.695-0.053v-0.722h2.439V156.329z"/>
	<path d="M172.956,155.607v1.778h-0.854l-0.053-0.889h-2.544v1.699h2.191v0.854h-2.191v1.831h2.544l0.053-0.889h0.854v1.778h-5.115
		v-0.722l0.739-0.062v-4.597l-0.748-0.062v-0.722H172.956z"/>
	<path d="M200.754,161.049v0.722h-1.356l-1.303-2.368h-1.435v1.585l0.616,0.062v0.722h-2.28v-0.722l0.739-0.062v-4.597l-0.748-0.062
		v-0.722h3.434c1.083,0,1.919,0.819,1.919,1.91c0,0.854-0.52,1.532-1.276,1.779l0.969,1.69L200.754,161.049z M196.66,158.539h1.761
		c0.563,0,1.012-0.458,1.012-1.021c0-0.572-0.448-1.021-1.012-1.021h-1.761V158.539z"/>
	<path d="M225.497,159.648v1.339l0.749,0.062v0.722h-2.413v-0.722l0.74-0.062v-1.356l-1.761-3.231l-0.811-0.07v-0.722h2.342v0.722
		l-0.528,0.044l1.074,1.973l0.15,0.335l0.141-0.335l1.074-1.973l-0.537-0.044v-0.722h2.342v0.722l-0.802,0.062L225.497,159.648z"/>
</g>
<g id="ODYNN_6_">
	<path d="M75.753,130.351c0,8.68-7.167,15.464-16.724,15.464c-9.556,0-16.77-6.784-16.77-15.464c0-8.68,7.215-15.464,16.77-15.464
		C68.586,114.887,75.753,121.672,75.753,130.351z M46.147,130.351c0,6.7,5.481,12.136,12.882,12.136
		c7.355,0,12.835-5.436,12.835-12.136c0-6.7-5.481-12.136-12.835-12.136C51.628,118.215,46.147,123.652,46.147,130.351z"/>
	<path d="M96.097,145.719H85.621c-0.737,0-1.334-0.529-1.334-1.181v-0.547c0-0.617,0.536-1.129,1.231-1.177l2.019-0.139"/>
	<path d="M88.767,118.015l-3.307-0.219c-0.692-0.05-1.225-0.562-1.225-1.177v-0.552c0-0.652,0.597-1.181,1.334-1.181h10.028"/>
	<path d="M99.97,114.887c10.382,0,18.19,6.879,17.759,16.196c-0.382,8.258-8.39,14.644-17.731,14.644l-14.377-0.009l-0.104-2.904
		l3.25-0.215v-24.585l-3.307-0.219l1.517-2.909H99.97z M99.97,142.203c8.25,0,14.282-5.545,13.589-13.063
		c-0.565-6.125-6.601-10.729-13.546-10.729l-7.113,0v23.791H99.97z"/>
	<path d="M143.715,135.11v6.396c0,0.617,0.513,1.13,1.176,1.177l1.974,0.141c0.664,0.047,1.176,0.56,1.176,1.177v0.546
		c0,0.652-0.57,1.181-1.274,1.181h-10.002c-0.704,0-1.274-0.529-1.274-1.181V144c0-0.617,0.512-1.129,1.175-1.177l1.928-0.139
		c0.663-0.048,1.175-0.561,1.175-1.177v-6.439c0-0.203-0.057-0.403-0.165-0.58l-9.676-15.883c-0.208-0.341-0.584-0.564-1.004-0.596
		l-2.769-0.212c-0.661-0.051-1.169-0.562-1.169-1.177v-0.552c0-0.652,0.57-1.181,1.274-1.181h9.574c0.704,0,1.274,0.529,1.274,1.181
		v0.543c0,0.618-0.514,1.131-1.179,1.177h0c-0.932,0.064-1.474,1.007-1.013,1.76l6.16,10.057c0.017,0.027,0.032,0.055,0.046,0.083
		l0.644,1.279l0.59-1.263c0.018-0.039,0.039-0.077,0.061-0.114l6.15-10.041c0.462-0.754-0.081-1.697-1.014-1.76l-0.043-0.003
		c-0.665-0.045-1.18-0.559-1.18-1.177v-0.542c0-0.652,0.57-1.181,1.274-1.181h9.574c0.704,0,1.274,0.529,1.274,1.181v0.553
		c0,0.614-0.508,1.126-1.168,1.177l-2.722,0.21c-0.421,0.033-0.797,0.256-1.004,0.597l-9.678,15.926
		C143.772,134.708,143.715,134.907,143.715,135.11z"/>
	<path d="M199.829,144.264L199.829,144.264c0,0.809-0.655,1.464-1.464,1.464h-5.036c-0.457,0-0.887-0.213-1.164-0.577l-18.33-24.052
		l0.13,2.339c0.002,0.027,0.002,0.054,0.002,0.081v17.752c0,0.754,0.572,1.384,1.322,1.457l0.527,0.051
		c0.75,0.073,1.322,0.703,1.322,1.457v0.027c0,0.809-0.655,1.464-1.464,1.464h-7.866c-0.809,0-1.464-0.655-1.464-1.464v-0.001
		c0-0.765,0.588-1.4,1.351-1.46l1.264-0.098c0.762-0.059,1.351-0.695,1.351-1.46v-21.874c0-0.765-0.589-1.401-1.352-1.46l-1.306-0.1
		c-0.763-0.059-1.352-0.695-1.352-1.46v0c0-0.809,0.655-1.464,1.464-1.464h4.993c0.456,0,0.886,0.213,1.163,0.575l18.373,24.053
		l-0.132-2.688v-17.482c0-0.754-0.573-1.385-1.324-1.457l-0.568-0.054c-0.751-0.072-1.324-0.703-1.324-1.457v-0.025
		c0-0.809,0.655-1.464,1.464-1.464h7.91c0.809,0,1.464,0.655,1.464,1.464v0.001c0,0.765-0.588,1.4-1.351,1.46l-1.265,0.098
		c-0.762,0.059-1.351,0.695-1.351,1.46v21.874c0,0.765,0.589,1.401,1.352,1.46l1.306,0.1
		C199.24,142.863,199.829,143.499,199.829,144.264z"/>
	<path d="M241.164,144.264L241.164,144.264c0,0.809-0.655,1.464-1.464,1.464h-5.036c-0.457,0-0.887-0.213-1.164-0.577l-18.33-24.052
		l0.13,2.339c0.002,0.027,0.002,0.054,0.002,0.081v17.752c0,0.754,0.572,1.384,1.322,1.457l0.527,0.051
		c0.75,0.073,1.322,0.703,1.322,1.457v0.027c0,0.809-0.655,1.464-1.464,1.464h-7.866c-0.809,0-1.464-0.655-1.464-1.464v-0.001
		c0-0.765,0.588-1.4,1.351-1.46l1.264-0.098c0.762-0.059,1.351-0.695,1.351-1.46v-21.874c0-0.765-0.589-1.401-1.352-1.46l-1.306-0.1
		c-0.763-0.059-1.352-0.695-1.352-1.46v0c0-0.809,0.655-1.464,1.464-1.464h4.993c0.456,0,0.886,0.213,1.163,0.575l18.373,24.053
		l-0.132-2.688v-17.482c0-0.754-0.573-1.385-1.324-1.457l-0.568-0.054c-0.751-0.072-1.324-0.703-1.324-1.457v-0.025
		c0-0.809,0.655-1.464,1.464-1.464h7.91c0.809,0,1.464,0.655,1.464,1.464v0.001c0,0.765-0.588,1.4-1.351,1.46l-1.265,0.098
		c-0.762,0.059-1.351,0.695-1.351,1.46v21.874c0,0.765,0.589,1.401,1.352,1.46l1.306,0.1
		C240.575,142.863,241.164,143.499,241.164,144.264z"/>
</g>
</svg>
