<?xml version="1.0" encoding="utf-8"?>
<!-- Generator: Adobe Illustrator 23.0.6, SVG Export Plug-In . SVG Version: 6.00 Build 0)  -->
<svg version="1.1" id="Слой_1" xmlns="http://www.w3.org/2000/svg" xmlns:xlink="http://www.w3.org/1999/xlink" x="0px" y="0px"
	 viewBox="0 0 85.039 85.039" style="enable-background:new 0 0 85.039 85.039;" xml:space="preserve">
<style type="text/css">
	.st0{fill:#0D0E0F;}
</style>
<g id="UNTAPPD_v1">
	<path class="st0" d="M64.66,2.002H20.435c-10.249,0-18.557,8.308-18.557,18.557v43.967c0,10.219,8.284,18.504,18.504,18.504h44.225
		c10.249,0,18.557-8.308,18.557-18.557V20.506C83.164,10.287,74.879,2.002,64.66,2.002z M58.002,63.894L44.139,43.914l-0.979-5.219
		l-0.584-1.135l-0.689,1.339l-0.831,5.36L27.299,63.535c-0.24,0.336-0.574,0.623-0.968,0.748
		c-4.477,1.421-10.436-3.126-10.187-7.879l14.128-19.794l4.59-2.694l3.765-4.032l-2.61-5.072l-0.72-0.475l-0.027-0.694l-0.763-0.381
		c0.811-1.708,2.093-2.592,4.029-2.778l0.103,0.836l0.73,0.209l0.192,0.839l3.043,3.257l2.921-3.127l0.203-0.836l0.646-0.261
		l0.1-0.844c1.887,0.179,3.157,1.08,3.992,2.831l-0.753,0.381l0.051,0.755l-0.726,0.466l-2.494,4.851l3.705,3.966l4.774,2.603
		l13.499,19.454c0.236,0.34,0.394,0.755,0.378,1.169C68.713,61.709,62.399,65.743,58.002,63.894z"/>
	<polygon class="st0" points="42.606,25.625 38.628,29.885 37.832,28.339 41.529,24.472 	"/>
	<polygon class="st0" points="46.545,29.84 42.576,37.56 43.324,39.964 47.729,31.107 	"/>
</g>
</svg>
