<?xml version="1.0" encoding="utf-8"?>
<!-- Generator: Adobe Illustrator 23.0.6, SVG Export Plug-In . SVG Version: 6.00 Build 0)  -->
<svg version="1.1" id="Слой_1" xmlns="http://www.w3.org/2000/svg" xmlns:xlink="http://www.w3.org/1999/xlink" x="0px" y="0px"
	 viewBox="0 0 85.039 85.039" style="enable-background:new 0 0 85.039 85.039;" xml:space="preserve">
<style type="text/css">
	.st0{fill:#0D0E0F;}
</style>
<path id="FACEBOOK_v1_2_" class="st0" d="M65.639,2.002h-46.26c-9.643,0-17.459,7.922-17.459,17.694v45.64
	c0,9.772,7.817,17.694,17.459,17.694h25.903c-0.01-0.18-0.029-0.359-0.029-0.539c-0.001-9.938-0.001-19.876-0.001-29.815
	c0-0.56,0-0.56-0.54-0.56c-3.277,0-6.554,0-9.831,0c-0.504,0-0.506-0.001-0.506-0.498c0-3.966,0-7.931,0-11.897
	c0-0.5,0.007-0.508,0.504-0.508c3.301-0.001,6.602,0,9.903-0.001c0.468,0,0.469-0.001,0.469-0.487
	c0.002-3.151-0.032-6.302,0.017-9.452c0.039-2.491,0.444-4.927,1.405-7.244c1.76-4.245,4.858-6.972,9.182-8.289
	c2.462-0.749,4.988-0.904,7.544-0.755c0.945,0.056,1.895,0.036,2.84,0.088c1.507,0.084,3.012,0.19,4.516,0.306
	c0.538,0.042,0.538,0.068,0.538,0.626c0.001,1.654,0,3.309,0,4.963c0,1.837,0.001,3.673-0.001,5.51c0,0.54-0.011,0.548-0.547,0.549
	c-2.292,0.002-4.586-0.025-6.877,0.022c-0.757,0.016-1.529,0.152-2.261,0.353c-1.903,0.522-2.873,1.89-3.104,3.816
	c-0.105,0.877-0.137,1.767-0.144,2.651c-0.019,2.299,0.001,4.598-0.014,6.897c-0.002,0.354,0.102,0.452,0.447,0.452
	c3.829-0.011,7.658-0.007,11.487-0.007c0.563,0,0.551,0,0.478,0.574c-0.228,1.779-0.443,3.56-0.669,5.34
	c-0.254,1.996-0.515,3.991-0.772,5.987c-0.025,0.192-0.072,0.386-0.067,0.577c0.01,0.366-0.172,0.432-0.493,0.431
	c-3.289-0.009-6.578-0.006-9.867-0.006c-0.538,0-0.538,0-0.538,0.562c0,9.938,0,19.876-0.002,29.815
	c0,0.179-0.021,0.358-0.032,0.537h7.319c9.643,0,17.459-7.922,17.459-17.694v-45.64C83.098,9.924,75.281,2.002,65.639,2.002z"/>
</svg>
