<?xml version="1.0" encoding="utf-8"?>
<!-- Generator: Adobe Illustrator 23.0.6, SVG Export Plug-In . SVG Version: 6.00 Build 0)  -->
<svg version="1.1" id="Слой_1" xmlns="http://www.w3.org/2000/svg" xmlns:xlink="http://www.w3.org/1999/xlink" x="0px" y="0px"
	 viewBox="0 0 85.039 85.039" style="enable-background:new 0 0 85.039 85.039;" xml:space="preserve">
<style type="text/css">
	.st0{fill:#0D0E0F;}
</style>
<g id="INSTAGRAM">
	<path class="st0" d="M66.672,27.01c-0.856-4.154-3.172-7.026-7.292-8.319c-1.776-0.558-3.615-0.649-5.455-0.745
		c-1.982-0.103-3.967-0.143-5.951-0.138c-5.847,0.014-11.696-0.112-17.541,0.159c-1.85,0.086-3.682,0.295-5.435,0.943
		c-2.914,1.078-4.937,3.059-6.046,5.968c-0.541,1.418-0.811,2.896-0.912,4.4c-0.327,4.851-0.24,9.71-0.236,14.567
		c0.001,1.847-0.031,3.695,0.009,5.541c0.06,2.739-0.001,5.488,0.458,8.204c0.338,2.002,1.014,3.866,2.332,5.46
		c2.071,2.504,4.856,3.522,7.969,3.859c2.101,0.228,4.214,0.277,6.323,0.285c6.424,0.024,12.849,0.147,19.272-0.111
		c1.426-0.057,2.842-0.175,4.235-0.486c2.427-0.542,4.518-1.654,6.079-3.644c1.044-1.222,1.618-2.672,2.028-4.2
		c0.52-1.938,0.562-3.933,0.613-5.913c0.174-6.889,0.161-13.78,0.005-20.67C67.089,30.442,67.023,28.712,66.672,27.01z
		 M57.856,44.257c-0.282,2.389-1.074,4.604-2.366,6.637c-1.144,1.717-2.537,3.195-4.249,4.355c-1.739,1.178-3.632,1.996-5.7,2.406
		c-3.264,0.648-6.4,0.248-9.438-1.085c-2.002-0.879-3.662-2.207-5.135-3.796c-1.391-1.502-2.351-3.255-3.04-5.17
		c-0.576-1.599-0.821-3.255-0.872-4.947c0.031-0.751-0.022-1.516,0.112-2.247c0.199-1.082,0.413-2.174,0.827-3.202
		c2.188-5.425,6.101-8.839,11.886-9.887c7.748-1.404,14.998,3.29,17.317,10.418C57.889,39.863,58.118,42.04,57.856,44.257z
		 M58.59,30.077c-2.006,0.015-3.627-1.585-3.642-3.595c-0.015-1.955,1.6-3.599,3.546-3.61c2.019-0.012,3.648,1.582,3.659,3.578
		C62.163,28.431,60.56,30.063,58.59,30.077z"/>
	<path class="st0" d="M39.848,32.808c-4.498,1.208-7.629,5.503-7.385,10.16c0.089,2.03,0.736,3.864,1.935,5.504
		c3.119,4.266,9.057,5.379,13.512,2.539c0.682-0.435,1.262-0.976,1.829-1.549c0.476-0.48,0.913-0.978,1.254-1.56
		c1.415-2.084,1.801-4.429,1.46-6.846C51.607,35.082,45.737,31.226,39.848,32.808z"/>
	<path class="st0" d="M64.752,2.002H20.283C10.185,2.002,2,10.188,2,20.285v44.469c0,10.097,8.185,18.283,18.283,18.283h44.469
		c10.097,0,18.283-8.185,18.283-18.283V20.285C83.035,10.188,74.849,2.002,64.752,2.002z M72.516,52.548
		c-0.053,2.335-0.151,4.673-0.666,6.97c-0.738,3.289-2.232,6.149-4.712,8.465c-1.692,1.562-3.652,2.664-5.835,3.379
		c-1.802,0.59-3.655,0.917-5.543,1.01c-7.953,0.394-15.91,0.262-23.867,0.171c-0.801-0.009-1.6-0.07-2.397-0.102
		c-0.863-0.034-1.73-0.152-2.592-0.285c-2.149-0.332-4.196-0.984-6.097-2.014c-1.385-0.751-2.608-1.748-3.689-2.916
		c-1.357-1.465-2.394-3.115-3.122-4.972c-0.829-2.115-1.207-4.318-1.353-6.571c-0.224-3.466-0.221-6.936-0.241-10.407
		c0.009-3.3,0.001-6.6,0.033-9.9c0.023-2.375,0.061-4.753,0.295-7.119c0.473-4.784,2.22-8.931,6.082-12.003
		c2.266-1.803,4.881-2.801,7.704-3.281c3.029-0.515,6.096-0.514,9.154-0.535c5.597-0.039,11.194-0.092,16.79,0.06
		c2.294,0.062,4.592,0.124,6.848,0.626c2.415,0.538,4.679,1.418,6.657,2.947c2.586,1.999,4.372,4.542,5.395,7.66
		c0.936,2.851,1.092,5.789,1.159,8.739C72.671,39.164,72.669,45.857,72.516,52.548z"/>
</g>
</svg>
